<svg width="208" height="208" viewBox="0 0 208 208" fill="none" xmlns="http://www.w3.org/2000/svg">
<circle cx="104" cy="104" r="103.5" fill="#F9F9F9" stroke="url(#paint0_linear_244_547)" stroke-dasharray="6 6"/>
<g filter="url(#filter0_d_244_547)">
<circle cx="104" cy="104" r="80" fill="url(#paint1_linear_244_547)"/>
</g>
<path d="M71 142V64C71 61.7909 72.7909 60 75 60H115.25L136.25 79.75V142C136.25 144.209 134.459 146 132.25 146H75C72.7909 146 71 144.209 71 142Z" fill="url(#paint2_linear_244_547)"/>
<path d="M136.25 79.75V142C136.25 144.209 134.459 146 132.25 146H75C72.7909 146 71 144.209 71 142V64C71 61.7909 72.7909 60 75 60H115.25M136.25 79.75H119.25C117.041 79.75 115.25 77.9591 115.25 75.75V60M136.25 79.75L115.25 60" stroke="white" stroke-width="3"/>
<path d="M118.25 79.75H128.681C131.398 79.75 132.716 76.4262 130.736 74.5646L120.305 64.7544C118.39 62.9535 115.25 64.3112 115.25 66.9397V76.75C115.25 78.4069 116.593 79.75 118.25 79.75Z" fill="white" stroke="white" stroke-width="3"/>
<path d="M83.25 90H96.75" stroke="white" stroke-width="3"/>
<path d="M83.25 100H121.75" stroke="white" stroke-width="3"/>
<path d="M83.25 110H121.75" stroke="white" stroke-width="3"/>
<path d="M83.25 120H106.75" stroke="white" stroke-width="3"/>
<path d="M83.25 130H106.75" stroke="white" stroke-width="3"/>
<rect x="121" y="130" width="31.5" height="20" rx="5" fill="url(#paint3_linear_244_547)"/>
<mask id="mask0_244_547" style="mask-type:alpha" maskUnits="userSpaceOnUse" x="123" y="134" width="12" height="12">
<rect x="123" y="134" width="12" height="12" fill="#D9D9D9"/>
</mask>
<g mask="url(#mask0_244_547)">
<path d="M128.226 145.226L123 140L128.226 134.774L129.34 135.888L125.227 140L129.34 144.113L128.226 145.226Z" fill="white"/>
</g>
<path d="M139.801 132.295L135.582 147.969H134.201L138.42 132.295H139.801Z" fill="white"/>
<mask id="mask1_244_547" style="mask-type:alpha" maskUnits="userSpaceOnUse" x="139" y="134" width="12" height="12">
<rect width="12" height="12" transform="matrix(-1 0 0 1 151 134)" fill="#D9D9D9"/>
</mask>
<g mask="url(#mask1_244_547)">
<path d="M145.774 145.226L151 140L145.774 134.774L144.66 135.888L148.773 140L144.66 144.113L145.774 145.226Z" fill="white"/>
</g>
<defs>
<filter id="filter0_d_244_547" x="12" y="15" width="184" height="184" filterUnits="userSpaceOnUse" color-interpolation-filters="sRGB">
<feFlood flood-opacity="0" result="BackgroundImageFix"/>
<feColorMatrix in="SourceAlpha" type="matrix" values="0 0 0 0 0 0 0 0 0 0 0 0 0 0 0 0 0 0 127 0" result="hardAlpha"/>
<feOffset dy="3"/>
<feGaussianBlur stdDeviation="6"/>
<feComposite in2="hardAlpha" operator="out"/>
<feColorMatrix type="matrix" values="0 0 0 0 0 0 0 0 0 0 0 0 0 0 0 0 0 0 0.12 0"/>
<feBlend mode="normal" in2="BackgroundImageFix" result="effect1_dropShadow_244_547"/>
<feBlend mode="normal" in="SourceGraphic" in2="effect1_dropShadow_244_547" result="shape"/>
</filter>
<linearGradient id="paint0_linear_244_547" x1="9.68575e-08" y1="104" x2="208" y2="104" gradientUnits="userSpaceOnUse">
<stop stop-color="#0B49F5"/>
<stop offset="1" stop-color="#02B4FF"/>
</linearGradient>
<linearGradient id="paint1_linear_244_547" x1="24" y1="104" x2="184" y2="104" gradientUnits="userSpaceOnUse">
<stop stop-color="#0B49F5"/>
<stop offset="1" stop-color="#02B4FF"/>
</linearGradient>
<linearGradient id="paint2_linear_244_547" x1="71" y1="103" x2="136.25" y2="103" gradientUnits="userSpaceOnUse">
<stop stop-color="#0B49F5"/>
<stop offset="1" stop-color="#02B4FF"/>
</linearGradient>
<linearGradient id="paint3_linear_244_547" x1="121" y1="140" x2="152.5" y2="140" gradientUnits="userSpaceOnUse">
<stop stop-color="#0B49F5"/>
<stop offset="1" stop-color="#02B4FF"/>
</linearGradient>
</defs>
</svg>
