<svg width="33" height="32" viewBox="0 0 33 32" fill="none" xmlns="http://www.w3.org/2000/svg">
<path d="M0.208252 16C0.208252 24.8366 7.3717 32 16.2083 32C25.0448 32 32.2083 24.8366 32.2083 16C32.2083 7.16344 25.0448 0 16.2083 0C7.3717 0 0.208252 7.16344 0.208252 16Z" fill="white" fill-opacity="0.2"/>
<path d="M24.2083 16C24.2083 11.6 20.6083 8 16.2083 8C11.8083 8 8.20825 11.6 8.20825 16C8.20825 20 11.1083 23.3 14.9083 23.9V18.3H12.9083V16H14.9083V14.2C14.9083 12.2 16.1083 11.1 17.9083 11.1C18.8083 11.1 19.7083 11.3 19.7083 11.3V13.3H18.7083C17.7083 13.3 17.4083 13.9 17.4083 14.5V16H19.6083L19.2083 18.3H17.3083V24C21.3083 23.4 24.2083 20 24.2083 16Z" fill="#C3C3C3"/>
</svg>
