<svg width="33" height="32" viewBox="0 0 33 32" fill="none" xmlns="http://www.w3.org/2000/svg">
<path d="M0.208252 16C0.208252 24.8366 7.3717 32 16.2083 32C25.0448 32 32.2083 24.8366 32.2083 16C32.2083 7.16344 25.0448 0 16.2083 0C7.3717 0 0.208252 7.16344 0.208252 16Z" fill="white" fill-opacity="0.2"/>
<path d="M16.2082 9.2002C18.4082 9.2002 18.7082 9.2002 19.6082 9.2002C20.4082 9.2002 20.8082 9.4002 21.1082 9.5002C21.5082 9.7002 21.8082 9.8002 22.1082 10.1002C22.4082 10.4002 22.6082 10.7002 22.7082 11.1002C22.8082 11.4002 22.9082 11.8002 23.0082 12.6002C23.0082 13.5002 23.0082 13.7002 23.0082 16.0002C23.0082 18.3002 23.0082 18.5002 23.0082 19.4002C23.0082 20.2002 22.8082 20.6002 22.7082 20.9002C22.5082 21.3002 22.4082 21.6002 22.1082 21.9002C21.8082 22.2002 21.5082 22.4002 21.1082 22.5002C20.8082 22.6002 20.4082 22.7002 19.6082 22.8002C18.7082 22.8002 18.5082 22.8002 16.2082 22.8002C13.9082 22.8002 13.7082 22.8002 12.8082 22.8002C12.0082 22.8002 11.6082 22.6002 11.3082 22.5002C10.9082 22.3002 10.6082 22.2002 10.3082 21.9002C10.0082 21.6002 9.8082 21.3002 9.7082 20.9002C9.6082 20.6002 9.5082 20.2002 9.4082 19.4002C9.4082 18.5002 9.4082 18.3002 9.4082 16.0002C9.4082 13.7002 9.4082 13.5002 9.4082 12.6002C9.4082 11.8002 9.6082 11.4002 9.7082 11.1002C9.9082 10.7002 10.0082 10.4002 10.3082 10.1002C10.6082 9.8002 10.9082 9.6002 11.3082 9.5002C11.6082 9.4002 12.0082 9.3002 12.8082 9.2002C13.7082 9.2002 14.0082 9.2002 16.2082 9.2002ZM16.2082 7.7002C13.9082 7.7002 13.7082 7.7002 12.8082 7.7002C11.9082 7.7002 11.3082 7.9002 10.8082 8.1002C10.3082 8.3002 9.8082 8.6002 9.3082 9.1002C8.8082 9.6002 8.6082 10.0002 8.3082 10.6002C8.1082 11.1002 8.0082 11.7002 7.9082 12.6002C7.9082 13.5002 7.9082 13.8002 7.9082 16.0002C7.9082 18.3002 7.9082 18.5002 7.9082 19.4002C7.9082 20.3002 8.1082 20.9002 8.3082 21.4002C8.5082 21.9002 8.8082 22.4002 9.3082 22.9002C9.8082 23.4002 10.2082 23.6002 10.8082 23.9002C11.3082 24.1002 11.9082 24.2002 12.8082 24.3002C13.7082 24.3002 14.0082 24.3002 16.2082 24.3002C18.4082 24.3002 18.7082 24.3002 19.6082 24.3002C20.5082 24.3002 21.1082 24.1002 21.6082 23.9002C22.1082 23.7002 22.6082 23.4002 23.1082 22.9002C23.6082 22.4002 23.8082 22.0002 24.1082 21.4002C24.3082 20.9002 24.4082 20.3002 24.5082 19.4002C24.5082 18.5002 24.5082 18.2002 24.5082 16.0002C24.5082 13.8002 24.5082 13.5002 24.5082 12.6002C24.5082 11.7002 24.3082 11.1002 24.1082 10.6002C23.9082 10.1002 23.6082 9.6002 23.1082 9.1002C22.6082 8.6002 22.2082 8.4002 21.6082 8.1002C21.1082 7.9002 20.5082 7.8002 19.6082 7.7002C18.7082 7.7002 18.5082 7.7002 16.2082 7.7002Z" fill="#C3C3C3"/>
<path d="M16.2082 11.7002C13.8082 11.7002 11.9082 13.6002 11.9082 16.0002C11.9082 18.4002 13.8082 20.3002 16.2082 20.3002C18.6082 20.3002 20.5082 18.4002 20.5082 16.0002C20.5082 13.6002 18.6082 11.7002 16.2082 11.7002ZM16.2082 18.8002C14.7082 18.8002 13.4082 17.6002 13.4082 16.0002C13.4082 14.5002 14.6082 13.2002 16.2082 13.2002C17.7082 13.2002 19.0082 14.4002 19.0082 16.0002C19.0082 17.5002 17.7082 18.8002 16.2082 18.8002Z" fill="#C3C3C3"/>
<path d="M20.6082 12.6002C21.1605 12.6002 21.6082 12.1525 21.6082 11.6002C21.6082 11.0479 21.1605 10.6002 20.6082 10.6002C20.0559 10.6002 19.6082 11.0479 19.6082 11.6002C19.6082 12.1525 20.0559 12.6002 20.6082 12.6002Z" fill="#C3C3C3"/>
</svg>
