<svg width="33" height="32" viewBox="0 0 33 32" fill="none" xmlns="http://www.w3.org/2000/svg">
<path d="M0.208252 16C0.208252 24.8366 7.3717 32 16.2083 32C25.0448 32 32.2083 24.8366 32.2083 16C32.2083 7.16344 25.0448 0 16.2083 0C7.3717 0 0.208252 7.16344 0.208252 16Z" fill="white" fill-opacity="0.2"/>
<path d="M11.8083 24H8.40825V13.3H11.8083V24ZM10.1083 11.8C9.00825 11.8 8.20825 11 8.20825 9.9C8.20825 8.8 9.10825 8 10.1083 8C11.2083 8 12.0083 8.8 12.0083 9.9C12.0083 11 11.2083 11.8 10.1083 11.8ZM24.2083 24H20.8083V18.2C20.8083 16.5 20.1082 16 19.1082 16C18.1082 16 17.1082 16.8 17.1082 18.3V24H13.7083V13.3H16.9082V14.8C17.2082 14.1 18.4082 13 20.1082 13C22.0082 13 24.0083 14.1 24.0083 17.4V24H24.2083Z" fill="#C3C3C3"/>
</svg>
