<svg width="184" height="184" viewBox="0 0 184 184" fill="none" xmlns="http://www.w3.org/2000/svg">
<g filter="url(#filter0_d_244_590)">
<circle cx="92" cy="89" r="80" fill="white"/>
</g>
<rect x="69" y="43" width="46" height="15" fill="white" stroke="url(#paint0_linear_244_590)"/>
<rect x="101.5" y="48.5" width="0.5" height="4" fill="white" stroke="url(#paint1_linear_244_590)" stroke-width="0.5"/>
<rect x="74" y="50" width="0.5" height="0.5" fill="white" stroke="url(#paint2_linear_244_590)" stroke-width="0.5"/>
<rect x="80" y="50" width="0.5" height="0.5" fill="white" stroke="url(#paint3_linear_244_590)" stroke-width="0.5"/>
<rect x="106" y="48.5" width="0.5" height="4" fill="white" stroke="url(#paint4_linear_244_590)" stroke-width="0.5"/>
<rect x="110.5" y="48.5" width="0.5" height="4" fill="white" stroke="url(#paint5_linear_244_590)" stroke-width="0.5"/>
<rect x="115" y="53.5" width="19" height="11.5" fill="white" stroke="url(#paint6_linear_244_590)"/>
<rect x="121" y="60" width="0.5" height="0.5" fill="white" stroke="url(#paint7_linear_244_590)" stroke-width="0.5"/>
<rect x="127" y="60" width="0.5" height="0.5" fill="white" stroke="url(#paint8_linear_244_590)" stroke-width="0.5"/>
<rect x="115" y="66" width="19" height="11.5" fill="white" stroke="url(#paint9_linear_244_590)"/>
<rect x="121" y="72.5" width="0.5" height="0.5" fill="white" stroke="url(#paint10_linear_244_590)" stroke-width="0.5"/>
<rect x="127" y="72.5" width="0.5" height="0.5" fill="white" stroke="url(#paint11_linear_244_590)" stroke-width="0.5"/>
<rect x="115" y="76.5" width="19" height="11.5" fill="white" stroke="url(#paint12_linear_244_590)"/>
<rect x="121" y="83" width="0.5" height="0.5" fill="white" stroke="url(#paint13_linear_244_590)" stroke-width="0.5"/>
<rect x="127" y="83" width="0.5" height="0.5" fill="white" stroke="url(#paint14_linear_244_590)" stroke-width="0.5"/>
<rect x="50" y="53.5" width="19" height="11.5" fill="white" stroke="url(#paint15_linear_244_590)"/>
<rect x="56" y="60" width="0.5" height="0.5" fill="white" stroke="url(#paint16_linear_244_590)" stroke-width="0.5"/>
<rect x="62" y="60" width="0.5" height="0.5" fill="white" stroke="url(#paint17_linear_244_590)" stroke-width="0.5"/>
<rect x="50" y="66" width="19" height="11.5" fill="white" stroke="url(#paint18_linear_244_590)"/>
<rect x="56" y="72.5" width="0.5" height="0.5" fill="white" stroke="url(#paint19_linear_244_590)" stroke-width="0.5"/>
<rect x="62" y="72.5" width="0.5" height="0.5" fill="white" stroke="url(#paint20_linear_244_590)" stroke-width="0.5"/>
<rect x="50" y="76.5" width="19" height="11.5" fill="white" stroke="url(#paint21_linear_244_590)"/>
<rect x="56" y="83" width="0.5" height="0.5" fill="white" stroke="url(#paint22_linear_244_590)" stroke-width="0.5"/>
<rect x="62" y="83" width="0.5" height="0.5" fill="white" stroke="url(#paint23_linear_244_590)" stroke-width="0.5"/>
<rect x="69" y="58" width="46" height="15" fill="#BDBDFF" stroke="url(#paint24_linear_244_590)"/>
<rect x="101.5" y="63.5" width="0.5" height="4" fill="url(#paint25_linear_244_590)" stroke="url(#paint26_linear_244_590)" stroke-width="0.5"/>
<rect x="74" y="65" width="0.5" height="0.5" fill="url(#paint27_linear_244_590)" stroke="url(#paint28_linear_244_590)" stroke-width="0.5"/>
<rect x="80" y="65" width="0.5" height="0.5" fill="url(#paint29_linear_244_590)" stroke="url(#paint30_linear_244_590)" stroke-width="0.5"/>
<rect x="106" y="63.5" width="0.5" height="4" fill="url(#paint31_linear_244_590)" stroke="url(#paint32_linear_244_590)" stroke-width="0.5"/>
<rect x="110.5" y="63.5" width="0.5" height="4" fill="url(#paint33_linear_244_590)" stroke="url(#paint34_linear_244_590)" stroke-width="0.5"/>
<rect x="69" y="73" width="46" height="15" fill="url(#paint35_linear_244_590)" stroke="url(#paint36_linear_244_590)"/>
<rect x="101.5" y="78.5" width="0.5" height="4" fill="white" stroke="white" stroke-width="0.5"/>
<rect x="74" y="80" width="0.5" height="0.5" fill="white" stroke="white" stroke-width="0.5"/>
<rect x="80" y="80" width="0.5" height="0.5" fill="white" stroke="white" stroke-width="0.5"/>
<rect x="106" y="78.5" width="0.5" height="4" fill="white" stroke="white" stroke-width="0.5"/>
<rect x="110.5" y="78.5" width="0.5" height="4" fill="white" stroke="white" stroke-width="0.5"/>
<path d="M57.25 116.5V88H126.25V116.5H57.25Z" fill="white" stroke="url(#paint37_linear_244_590)"/>
<circle cx="126" cy="116" r="4.5" fill="white" stroke="url(#paint38_linear_244_590)"/>
<circle cx="58" cy="116" r="4.5" fill="white" stroke="url(#paint39_linear_244_590)"/>
<rect width="30" height="36" transform="translate(78 98.5)" fill="white"/>
<mask id="mask0_244_590" style="mask-type:alpha" maskUnits="userSpaceOnUse" x="75" y="98" width="36" height="37">
<rect x="75" y="98.5" width="36" height="36" fill="#D9D9D9"/>
</mask>
<g mask="url(#mask0_244_590)">
<path d="M88.8758 131.5L88.2758 126.7C87.9508 126.575 87.6445 126.425 87.357 126.25C87.0695 126.075 86.7883 125.887 86.5133 125.687L82.0508 127.562L77.9258 120.437L81.7883 117.512C81.7633 117.337 81.7508 117.169 81.7508 117.006V115.994C81.7508 115.831 81.7633 115.662 81.7883 115.487L77.9258 112.562L82.0508 105.437L86.5133 107.312C86.7883 107.112 87.0758 106.925 87.3758 106.75C87.6758 106.575 87.9758 106.425 88.2758 106.3L88.8758 101.5H97.1258L97.7258 106.3C98.0508 106.425 98.357 106.575 98.6445 106.75C98.932 106.925 99.2133 107.112 99.4883 107.312L103.951 105.437L108.076 112.562L104.213 115.487C104.238 115.662 104.251 115.831 104.251 115.994V117.006C104.251 117.169 104.226 117.337 104.176 117.512L108.038 120.437L103.913 127.562L99.4883 125.687C99.2133 125.887 98.9258 126.075 98.6258 126.25C98.3258 126.425 98.0258 126.575 97.7258 126.7L97.1258 131.5H88.8758ZM91.5008 128.5H94.4633L94.9883 124.525C95.7633 124.325 96.482 124.031 97.1445 123.644C97.807 123.256 98.4133 122.787 98.9633 122.237L102.676 123.775L104.138 121.225L100.913 118.788C101.038 118.438 101.126 118.069 101.176 117.681C101.226 117.294 101.251 116.9 101.251 116.5C101.251 116.1 101.226 115.706 101.176 115.319C101.126 114.931 101.038 114.562 100.913 114.212L104.138 111.775L102.676 109.225L98.9633 110.8C98.4133 110.225 97.807 109.744 97.1445 109.356C96.482 108.969 95.7633 108.675 94.9883 108.475L94.5008 104.5H91.5383L91.0133 108.475C90.2383 108.675 89.5195 108.969 88.857 109.356C88.1945 109.744 87.5883 110.212 87.0383 110.762L83.3258 109.225L81.8633 111.775L85.0883 114.175C84.9633 114.55 84.8758 114.925 84.8258 115.3C84.7758 115.675 84.7508 116.075 84.7508 116.5C84.7508 116.9 84.7758 117.288 84.8258 117.663C84.8758 118.038 84.9633 118.413 85.0883 118.788L81.8633 121.225L83.3258 123.775L87.0383 122.2C87.5883 122.775 88.1945 123.256 88.857 123.644C89.5195 124.031 90.2383 124.325 91.0133 124.525L91.5008 128.5Z" fill="url(#paint40_linear_244_590)"/>
</g>
<mask id="mask1_244_590" style="mask-type:alpha" maskUnits="userSpaceOnUse" x="84" y="108" width="16" height="17">
<rect x="84" y="108.5" width="16" height="16" fill="#D9D9D9"/>
</mask>
<g mask="url(#mask1_244_590)">
<path d="M90.3664 120.5L86.5664 116.7L87.5164 115.75L90.3664 118.6L96.4831 112.483L97.4331 113.433L90.3664 120.5Z" fill="url(#paint41_linear_244_590)"/>
</g>
<defs>
<filter id="filter0_d_244_590" x="0" y="0" width="184" height="184" filterUnits="userSpaceOnUse" color-interpolation-filters="sRGB">
<feFlood flood-opacity="0" result="BackgroundImageFix"/>
<feColorMatrix in="SourceAlpha" type="matrix" values="0 0 0 0 0 0 0 0 0 0 0 0 0 0 0 0 0 0 127 0" result="hardAlpha"/>
<feOffset dy="3"/>
<feGaussianBlur stdDeviation="6"/>
<feComposite in2="hardAlpha" operator="out"/>
<feColorMatrix type="matrix" values="0 0 0 0 0 0 0 0 0 0 0 0 0 0 0 0 0 0 0.12 0"/>
<feBlend mode="normal" in2="BackgroundImageFix" result="effect1_dropShadow_244_590"/>
<feBlend mode="normal" in="SourceGraphic" in2="effect1_dropShadow_244_590" result="shape"/>
</filter>
<linearGradient id="paint0_linear_244_590" x1="69" y1="50.5" x2="115" y2="50.5" gradientUnits="userSpaceOnUse">
<stop stop-color="#0B49F5"/>
<stop offset="1" stop-color="#02B4FF"/>
</linearGradient>
<linearGradient id="paint1_linear_244_590" x1="101.5" y1="50.5" x2="102" y2="50.5" gradientUnits="userSpaceOnUse">
<stop stop-color="#0B49F5"/>
<stop offset="1" stop-color="#02B4FF"/>
</linearGradient>
<linearGradient id="paint2_linear_244_590" x1="74" y1="50.25" x2="74.5" y2="50.25" gradientUnits="userSpaceOnUse">
<stop stop-color="#0B49F5"/>
<stop offset="1" stop-color="#02B4FF"/>
</linearGradient>
<linearGradient id="paint3_linear_244_590" x1="80" y1="50.25" x2="80.5" y2="50.25" gradientUnits="userSpaceOnUse">
<stop stop-color="#0B49F5"/>
<stop offset="1" stop-color="#02B4FF"/>
</linearGradient>
<linearGradient id="paint4_linear_244_590" x1="106" y1="50.5" x2="106.5" y2="50.5" gradientUnits="userSpaceOnUse">
<stop stop-color="#0B49F5"/>
<stop offset="1" stop-color="#02B4FF"/>
</linearGradient>
<linearGradient id="paint5_linear_244_590" x1="110.5" y1="50.5" x2="111" y2="50.5" gradientUnits="userSpaceOnUse">
<stop stop-color="#0B49F5"/>
<stop offset="1" stop-color="#02B4FF"/>
</linearGradient>
<linearGradient id="paint6_linear_244_590" x1="115" y1="59.25" x2="134" y2="59.25" gradientUnits="userSpaceOnUse">
<stop stop-color="#0B49F5"/>
<stop offset="1" stop-color="#02B4FF"/>
</linearGradient>
<linearGradient id="paint7_linear_244_590" x1="121" y1="60.25" x2="121.5" y2="60.25" gradientUnits="userSpaceOnUse">
<stop stop-color="#0B49F5"/>
<stop offset="1" stop-color="#02B4FF"/>
</linearGradient>
<linearGradient id="paint8_linear_244_590" x1="127" y1="60.25" x2="127.5" y2="60.25" gradientUnits="userSpaceOnUse">
<stop stop-color="#0B49F5"/>
<stop offset="1" stop-color="#02B4FF"/>
</linearGradient>
<linearGradient id="paint9_linear_244_590" x1="115" y1="71.75" x2="134" y2="71.75" gradientUnits="userSpaceOnUse">
<stop stop-color="#0B49F5"/>
<stop offset="1" stop-color="#02B4FF"/>
</linearGradient>
<linearGradient id="paint10_linear_244_590" x1="121" y1="72.75" x2="121.5" y2="72.75" gradientUnits="userSpaceOnUse">
<stop stop-color="#0B49F5"/>
<stop offset="1" stop-color="#02B4FF"/>
</linearGradient>
<linearGradient id="paint11_linear_244_590" x1="127" y1="72.75" x2="127.5" y2="72.75" gradientUnits="userSpaceOnUse">
<stop stop-color="#0B49F5"/>
<stop offset="1" stop-color="#02B4FF"/>
</linearGradient>
<linearGradient id="paint12_linear_244_590" x1="115" y1="82.25" x2="134" y2="82.25" gradientUnits="userSpaceOnUse">
<stop stop-color="#0B49F5"/>
<stop offset="1" stop-color="#02B4FF"/>
</linearGradient>
<linearGradient id="paint13_linear_244_590" x1="121" y1="83.25" x2="121.5" y2="83.25" gradientUnits="userSpaceOnUse">
<stop stop-color="#0B49F5"/>
<stop offset="1" stop-color="#02B4FF"/>
</linearGradient>
<linearGradient id="paint14_linear_244_590" x1="127" y1="83.25" x2="127.5" y2="83.25" gradientUnits="userSpaceOnUse">
<stop stop-color="#0B49F5"/>
<stop offset="1" stop-color="#02B4FF"/>
</linearGradient>
<linearGradient id="paint15_linear_244_590" x1="50" y1="59.25" x2="69" y2="59.25" gradientUnits="userSpaceOnUse">
<stop stop-color="#0B49F5"/>
<stop offset="1" stop-color="#02B4FF"/>
</linearGradient>
<linearGradient id="paint16_linear_244_590" x1="56" y1="60.25" x2="56.5" y2="60.25" gradientUnits="userSpaceOnUse">
<stop stop-color="#0B49F5"/>
<stop offset="1" stop-color="#02B4FF"/>
</linearGradient>
<linearGradient id="paint17_linear_244_590" x1="62" y1="60.25" x2="62.5" y2="60.25" gradientUnits="userSpaceOnUse">
<stop stop-color="#0B49F5"/>
<stop offset="1" stop-color="#02B4FF"/>
</linearGradient>
<linearGradient id="paint18_linear_244_590" x1="50" y1="71.75" x2="69" y2="71.75" gradientUnits="userSpaceOnUse">
<stop stop-color="#0B49F5"/>
<stop offset="1" stop-color="#02B4FF"/>
</linearGradient>
<linearGradient id="paint19_linear_244_590" x1="56" y1="72.75" x2="56.5" y2="72.75" gradientUnits="userSpaceOnUse">
<stop stop-color="#0B49F5"/>
<stop offset="1" stop-color="#02B4FF"/>
</linearGradient>
<linearGradient id="paint20_linear_244_590" x1="62" y1="72.75" x2="62.5" y2="72.75" gradientUnits="userSpaceOnUse">
<stop stop-color="#0B49F5"/>
<stop offset="1" stop-color="#02B4FF"/>
</linearGradient>
<linearGradient id="paint21_linear_244_590" x1="50" y1="82.25" x2="69" y2="82.25" gradientUnits="userSpaceOnUse">
<stop stop-color="#0B49F5"/>
<stop offset="1" stop-color="#02B4FF"/>
</linearGradient>
<linearGradient id="paint22_linear_244_590" x1="56" y1="83.25" x2="56.5" y2="83.25" gradientUnits="userSpaceOnUse">
<stop stop-color="#0B49F5"/>
<stop offset="1" stop-color="#02B4FF"/>
</linearGradient>
<linearGradient id="paint23_linear_244_590" x1="62" y1="83.25" x2="62.5" y2="83.25" gradientUnits="userSpaceOnUse">
<stop stop-color="#0B49F5"/>
<stop offset="1" stop-color="#02B4FF"/>
</linearGradient>
<linearGradient id="paint24_linear_244_590" x1="69" y1="65.5" x2="115" y2="65.5" gradientUnits="userSpaceOnUse">
<stop stop-color="#0B49F5"/>
<stop offset="1" stop-color="#02B4FF"/>
</linearGradient>
<linearGradient id="paint25_linear_244_590" x1="101.5" y1="65.5" x2="102" y2="65.5" gradientUnits="userSpaceOnUse">
<stop stop-color="#0B49F5"/>
<stop offset="1" stop-color="#02B4FF"/>
</linearGradient>
<linearGradient id="paint26_linear_244_590" x1="101.5" y1="65.5" x2="102" y2="65.5" gradientUnits="userSpaceOnUse">
<stop stop-color="#0B49F5"/>
<stop offset="1" stop-color="#02B4FF"/>
</linearGradient>
<linearGradient id="paint27_linear_244_590" x1="74" y1="65.25" x2="74.5" y2="65.25" gradientUnits="userSpaceOnUse">
<stop stop-color="#0B49F5"/>
<stop offset="1" stop-color="#02B4FF"/>
</linearGradient>
<linearGradient id="paint28_linear_244_590" x1="74" y1="65.25" x2="74.5" y2="65.25" gradientUnits="userSpaceOnUse">
<stop stop-color="#0B49F5"/>
<stop offset="1" stop-color="#02B4FF"/>
</linearGradient>
<linearGradient id="paint29_linear_244_590" x1="80" y1="65.25" x2="80.5" y2="65.25" gradientUnits="userSpaceOnUse">
<stop stop-color="#0B49F5"/>
<stop offset="1" stop-color="#02B4FF"/>
</linearGradient>
<linearGradient id="paint30_linear_244_590" x1="80" y1="65.25" x2="80.5" y2="65.25" gradientUnits="userSpaceOnUse">
<stop stop-color="#0B49F5"/>
<stop offset="1" stop-color="#02B4FF"/>
</linearGradient>
<linearGradient id="paint31_linear_244_590" x1="106" y1="65.5" x2="106.5" y2="65.5" gradientUnits="userSpaceOnUse">
<stop stop-color="#0B49F5"/>
<stop offset="1" stop-color="#02B4FF"/>
</linearGradient>
<linearGradient id="paint32_linear_244_590" x1="106" y1="65.5" x2="106.5" y2="65.5" gradientUnits="userSpaceOnUse">
<stop stop-color="#0B49F5"/>
<stop offset="1" stop-color="#02B4FF"/>
</linearGradient>
<linearGradient id="paint33_linear_244_590" x1="110.5" y1="65.5" x2="111" y2="65.5" gradientUnits="userSpaceOnUse">
<stop stop-color="#0B49F5"/>
<stop offset="1" stop-color="#02B4FF"/>
</linearGradient>
<linearGradient id="paint34_linear_244_590" x1="110.5" y1="65.5" x2="111" y2="65.5" gradientUnits="userSpaceOnUse">
<stop stop-color="#0B49F5"/>
<stop offset="1" stop-color="#02B4FF"/>
</linearGradient>
<linearGradient id="paint35_linear_244_590" x1="69" y1="80.5" x2="115" y2="80.5" gradientUnits="userSpaceOnUse">
<stop stop-color="#0B49F5"/>
<stop offset="1" stop-color="#02B4FF"/>
</linearGradient>
<linearGradient id="paint36_linear_244_590" x1="69" y1="80.5" x2="115" y2="80.5" gradientUnits="userSpaceOnUse">
<stop stop-color="#0B49F5"/>
<stop offset="1" stop-color="#02B4FF"/>
</linearGradient>
<linearGradient id="paint37_linear_244_590" x1="57.25" y1="102.25" x2="126.25" y2="102.25" gradientUnits="userSpaceOnUse">
<stop stop-color="#0B49F5"/>
<stop offset="1" stop-color="#02B4FF"/>
</linearGradient>
<linearGradient id="paint38_linear_244_590" x1="122" y1="116" x2="130" y2="116" gradientUnits="userSpaceOnUse">
<stop stop-color="#0B49F5"/>
<stop offset="1" stop-color="#02B4FF"/>
</linearGradient>
<linearGradient id="paint39_linear_244_590" x1="54" y1="116" x2="62" y2="116" gradientUnits="userSpaceOnUse">
<stop stop-color="#0B49F5"/>
<stop offset="1" stop-color="#02B4FF"/>
</linearGradient>
<linearGradient id="paint40_linear_244_590" x1="77.9258" y1="116.5" x2="108.076" y2="116.5" gradientUnits="userSpaceOnUse">
<stop stop-color="#0B49F5"/>
<stop offset="1" stop-color="#02B4FF"/>
</linearGradient>
<linearGradient id="paint41_linear_244_590" x1="86.5664" y1="116.492" x2="97.4331" y2="116.492" gradientUnits="userSpaceOnUse">
<stop stop-color="#0B49F5"/>
<stop offset="1" stop-color="#02B4FF"/>
</linearGradient>
</defs>
</svg>
