<svg width="184" height="184" viewBox="0 0 184 184" fill="none" xmlns="http://www.w3.org/2000/svg">
<g filter="url(#filter0_bd_244_498)">
<circle cx="92" cy="89" r="80" fill="white"/>
</g>
<path d="M62.25 74H75.75" stroke="url(#paint0_linear_244_498)" stroke-width="3"/>
<path d="M62.25 84H100.75" stroke="url(#paint1_linear_244_498)" stroke-width="3"/>
<path d="M62.25 94H100.75" stroke="url(#paint2_linear_244_498)" stroke-width="3"/>
<path d="M62.25 104H85.75" stroke="url(#paint3_linear_244_498)" stroke-width="3"/>
<path d="M62.25 114H85.75" stroke="url(#paint4_linear_244_498)" stroke-width="3"/>
<rect x="95.75" y="96.25" width="39.5" height="39.5" stroke="url(#paint5_linear_244_498)" stroke-width="0.5"/>
<mask id="mask0_244_498" style="mask-type:alpha" maskUnits="userSpaceOnUse" x="95" y="96" width="41" height="40">
<rect x="95.5" y="96" width="40" height="40" fill="#D9D9D9"/>
</mask>
<g mask="url(#mask0_244_498)">
<path d="M113.716 130.5C113.211 130.5 112.786 130.124 112.724 129.624L112.332 126.489C112.282 126.091 111.998 125.766 111.624 125.621C111.213 125.462 110.776 125.255 110.312 125C109.834 124.737 109.41 124.462 109.039 124.174C108.725 123.931 108.305 123.851 107.94 124.007L105.069 125.233C104.602 125.433 104.06 125.251 103.808 124.81L102.02 121.682C101.77 121.244 101.885 120.69 102.287 120.387L104.807 118.49C105.105 118.266 105.251 117.895 105.201 117.525C105.181 117.38 105.163 117.233 105.146 117.083C105.104 116.722 105.083 116.375 105.083 116.042C105.083 115.736 105.104 115.41 105.146 115.062C105.168 114.873 105.193 114.669 105.22 114.45C105.264 114.094 105.115 113.742 104.829 113.527L102.293 111.617C101.888 111.313 101.775 110.754 102.03 110.316L103.807 107.26C104.06 106.826 104.597 106.646 105.06 106.842L107.933 108.053C108.28 108.199 108.679 108.135 108.979 107.906C109.398 107.586 109.843 107.291 110.312 107.021C110.755 106.766 111.189 106.553 111.612 106.382C111.971 106.237 112.241 105.922 112.292 105.539L112.717 102.367C112.783 101.871 113.207 101.5 113.708 101.5H117.283C117.787 101.5 118.213 101.876 118.275 102.377L118.673 105.59C118.72 105.969 118.979 106.284 119.333 106.426C119.818 106.62 120.255 106.832 120.646 107.062C121.04 107.295 121.446 107.576 121.863 107.905C122.157 108.136 122.551 108.203 122.897 108.063L125.946 106.826C126.407 106.639 126.936 106.82 127.186 107.25L128.97 110.316C129.224 110.754 129.111 111.313 128.707 111.617L126.09 113.587C125.76 113.836 125.629 114.261 125.69 114.67C125.71 114.806 125.723 114.937 125.729 115.062C125.743 115.382 125.75 115.694 125.75 116C125.75 116.278 125.736 116.576 125.708 116.896C125.693 117.067 125.67 117.26 125.639 117.476C125.586 117.849 125.732 118.226 126.035 118.452L128.625 120.387C129.029 120.69 129.145 121.246 128.894 121.684L127.11 124.806C126.858 125.249 126.313 125.43 125.845 125.228L122.906 123.956C122.556 123.805 122.151 123.869 121.85 124.105C121.428 124.436 121.005 124.728 120.583 124.979C120.189 125.214 119.782 125.413 119.363 125.578C118.995 125.723 118.718 126.044 118.67 126.436L118.275 129.623C118.213 130.124 117.787 130.5 117.283 130.5H113.716ZM113.727 128.453C113.787 128.955 114.214 129.333 114.72 129.333H116.211C116.711 129.333 117.134 128.965 117.202 128.47L117.617 125.45C117.672 125.051 117.963 124.729 118.345 124.601C118.925 124.408 119.456 124.173 119.937 123.896C120.441 123.606 120.966 123.221 121.512 122.741C121.813 122.476 122.24 122.395 122.609 122.554L125.356 123.735C125.819 123.934 126.358 123.758 126.613 123.323L127.38 122.021C127.638 121.582 127.525 121.019 127.118 120.714L124.713 118.91C124.383 118.663 124.245 118.24 124.329 117.837C124.379 117.598 124.415 117.374 124.437 117.167C124.479 116.778 124.5 116.389 124.5 116C124.5 115.583 124.479 115.194 124.437 114.833C124.416 114.654 124.384 114.46 124.339 114.253C124.251 113.846 124.386 113.417 124.718 113.167L127.206 111.287C127.611 110.981 127.722 110.42 127.465 109.982L126.692 108.668C126.439 108.238 125.906 108.06 125.445 108.253L122.614 109.434C122.221 109.598 121.771 109.491 121.451 109.21C121.048 108.856 120.557 108.508 119.979 108.167C119.408 107.83 118.873 107.575 118.371 107.402C117.959 107.26 117.634 106.914 117.586 106.481L117.264 103.557C117.209 103.05 116.78 102.667 116.27 102.667H114.728C114.219 102.667 113.79 103.05 113.734 103.556L113.414 106.44C113.366 106.873 113.041 107.218 112.623 107.34C112.061 107.504 111.534 107.724 111.041 108C110.504 108.301 109.957 108.702 109.403 109.203C109.101 109.476 108.672 109.564 108.297 109.407L105.556 108.255C105.094 108.061 104.56 108.239 104.306 108.67L103.537 109.978C103.279 110.417 103.392 110.981 103.801 111.286L106.101 113.005C106.46 113.273 106.588 113.746 106.496 114.185C106.464 114.339 106.437 114.5 106.416 114.667C106.361 115.111 106.333 115.569 106.333 116.042C106.333 116.458 106.361 116.875 106.416 117.292C106.441 117.477 106.471 117.659 106.507 117.839C106.587 118.242 106.452 118.664 106.127 118.914L103.784 120.712C103.384 121.019 103.275 121.577 103.531 122.012L104.305 123.327C104.559 123.76 105.095 123.937 105.557 123.741L108.254 122.597C108.629 122.438 109.06 122.525 109.365 122.796C109.874 123.249 110.391 123.623 110.916 123.917C111.433 124.206 112.004 124.449 112.629 124.647C113.024 124.771 113.324 125.105 113.374 125.517L113.727 128.453Z" fill="url(#paint6_linear_244_498)" stroke="url(#paint7_linear_244_498)"/>
</g>
<circle cx="116" cy="116" r="3" stroke="url(#paint8_linear_244_498)" stroke-width="2"/>
<path fill-rule="evenodd" clip-rule="evenodd" d="M51.5 52C51.5 48.4101 54.4101 45.5 58 45.5H92.75V55.75C92.75 60.9967 97.0033 65.25 102.25 65.25H113.75V96H116.75V63.75V63.1016L116.278 62.6573L95.2776 42.9073L94.8445 42.5H94.25H58C52.7533 42.5 48.5 46.7533 48.5 52V122C48.5 127.247 52.7533 131.5 58 131.5H95.5V128.5H58C54.4101 128.5 51.5 125.59 51.5 122V52ZM111.466 62.25L95.75 47.4699V55.75C95.75 59.3399 98.6601 62.25 102.25 62.25H111.466Z" fill="url(#paint9_linear_244_498)"/>
<defs>
<filter id="filter0_bd_244_498" x="-8" y="-11" width="200" height="200" filterUnits="userSpaceOnUse" color-interpolation-filters="sRGB">
<feFlood flood-opacity="0" result="BackgroundImageFix"/>
<feGaussianBlur in="BackgroundImageFix" stdDeviation="10"/>
<feComposite in2="SourceAlpha" operator="in" result="effect1_backgroundBlur_244_498"/>
<feColorMatrix in="SourceAlpha" type="matrix" values="0 0 0 0 0 0 0 0 0 0 0 0 0 0 0 0 0 0 127 0" result="hardAlpha"/>
<feOffset dy="3"/>
<feGaussianBlur stdDeviation="6"/>
<feComposite in2="hardAlpha" operator="out"/>
<feColorMatrix type="matrix" values="0 0 0 0 0 0 0 0 0 0 0 0 0 0 0 0 0 0 0.12 0"/>
<feBlend mode="normal" in2="effect1_backgroundBlur_244_498" result="effect2_dropShadow_244_498"/>
<feBlend mode="normal" in="SourceGraphic" in2="effect2_dropShadow_244_498" result="shape"/>
</filter>
<linearGradient id="paint0_linear_244_498" x1="62.25" y1="74.5" x2="75.75" y2="74.5" gradientUnits="userSpaceOnUse">
<stop stop-color="#0B49F5"/>
<stop offset="1" stop-color="#02B4FF"/>
</linearGradient>
<linearGradient id="paint1_linear_244_498" x1="62.25" y1="84.5" x2="100.75" y2="84.5" gradientUnits="userSpaceOnUse">
<stop stop-color="#0B49F5"/>
<stop offset="1" stop-color="#02B4FF"/>
</linearGradient>
<linearGradient id="paint2_linear_244_498" x1="62.25" y1="94.5" x2="100.75" y2="94.5" gradientUnits="userSpaceOnUse">
<stop stop-color="#0B49F5"/>
<stop offset="1" stop-color="#02B4FF"/>
</linearGradient>
<linearGradient id="paint3_linear_244_498" x1="62.25" y1="104.5" x2="85.75" y2="104.5" gradientUnits="userSpaceOnUse">
<stop stop-color="#0B49F5"/>
<stop offset="1" stop-color="#02B4FF"/>
</linearGradient>
<linearGradient id="paint4_linear_244_498" x1="62.25" y1="114.5" x2="85.75" y2="114.5" gradientUnits="userSpaceOnUse">
<stop stop-color="#0B49F5"/>
<stop offset="1" stop-color="#02B4FF"/>
</linearGradient>
<linearGradient id="paint5_linear_244_498" x1="95.5" y1="116" x2="135.5" y2="116" gradientUnits="userSpaceOnUse">
<stop stop-color="#0B49F5"/>
<stop offset="1" stop-color="#02B4FF"/>
</linearGradient>
<linearGradient id="paint6_linear_244_498" x1="101.583" y1="116" x2="129.416" y2="116" gradientUnits="userSpaceOnUse">
<stop stop-color="#0B49F5"/>
<stop offset="1" stop-color="#02B4FF"/>
</linearGradient>
<linearGradient id="paint7_linear_244_498" x1="101.583" y1="116" x2="129.416" y2="116" gradientUnits="userSpaceOnUse">
<stop stop-color="#0B49F5"/>
<stop offset="1" stop-color="#02B4FF"/>
</linearGradient>
<linearGradient id="paint8_linear_244_498" x1="113" y1="116" x2="119" y2="116" gradientUnits="userSpaceOnUse">
<stop stop-color="#0B49F5"/>
<stop offset="1" stop-color="#02B4FF"/>
</linearGradient>
<linearGradient id="paint9_linear_244_498" x1="48.5" y1="87" x2="116.75" y2="87" gradientUnits="userSpaceOnUse">
<stop stop-color="#0B49F5"/>
<stop offset="1" stop-color="#02B4FF"/>
</linearGradient>
</defs>
</svg>
